<?xml version="1.0" encoding="UTF-8"?>
<svg xmlns="http://www.w3.org/2000/svg" viewBox="0 0 1200 800" width="1200" height="800">
  <defs>
    <linearGradient id="skyGradient" x1="0%" y1="0%" x2="0%" y2="100%">
      <stop offset="0%" style="stop-color:#667eea;stop-opacity:1" />
      <stop offset="50%" style="stop-color:#764ba2;stop-opacity:1" />
      <stop offset="100%" style="stop-color:#f093fb;stop-opacity:1" />
    </linearGradient>
    
    <linearGradient id="buildingGradient" x1="0%" y1="0%" x2="0%" y2="100%">
      <stop offset="0%" style="stop-color:#4a5568;stop-opacity:1" />
      <stop offset="100%" style="stop-color:#2d3748;stop-opacity:1" />
    </linearGradient>
    
    <radialGradient id="light" cx="50%" cy="30%" r="70%">
      <stop offset="0%" style="stop-color:#fff9e6;stop-opacity:0.9" />
      <stop offset="100%" style="stop-color:#ffd700;stop-opacity:0.3" />
    </radialGradient>
  </defs>
  
  <!-- Sky -->
  <rect width="1200" height="800" fill="url(#skyGradient)"/>
  
  <!-- Stars -->
  <circle cx="100" cy="50" r="1.5" fill="white" opacity="0.8"/>
  <circle cx="250" cy="80" r="1" fill="white" opacity="0.6"/>
  <circle cx="450" cy="40" r="1.2" fill="white" opacity="0.7"/>
  <circle cx="650" cy="90" r="1" fill="white" opacity="0.5"/>
  <circle cx="900" cy="60" r="1.5" fill="white" opacity="0.8"/>
  <circle cx="1100" cy="100" r="1" fill="white" opacity="0.6"/>
  
  <!-- Moon -->
  <circle cx="1050" cy="80" r="35" fill="#fffacd" opacity="0.9"/>
  <circle cx="1070" cy="65" r="35" fill="url(#skyGradient)" opacity="0.9"/>
  
  <!-- Ground -->
  <rect y="650" width="1200" height="150" fill="#1a202c"/>
  
  <!-- Main Building (Center-Left) -->
  <rect x="150" y="300" width="320" height="400" fill="url(#buildingGradient)" stroke="#1a1a1a" stroke-width="2"/>
  
  <!-- Building Roof (peaked) -->
  <polygon points="150,300 310,180 470,300" fill="#1a1a1a" stroke="#0d0d0d" stroke-width="2"/>
  
  <!-- Windows Main Building -->
  <rect x="175" y="330" width="35" height="35" fill="url(#light)" stroke="#222" stroke-width="1"/>
  <rect x="230" y="330" width="35" height="35" fill="#1a3a5c" stroke="#222" stroke-width="1"/>
  <rect x="285" y="330" width="35" height="35" fill="url(#light)" stroke="#222" stroke-width="1"/>
  <rect x="340" y="330" width="35" height="35" fill="#1a3a5c" stroke="#222" stroke-width="1"/>
  <rect x="395" y="330" width="35" height="35" fill="url(#light)" stroke="#222" stroke-width="1"/>
  
  <rect x="175" y="390" width="35" height="35" fill="#1a3a5c" stroke="#222" stroke-width="1"/>
  <rect x="230" y="390" width="35" height="35" fill="url(#light)" stroke="#222" stroke-width="1"/>
  <rect x="285" y="390" width="35" height="35" fill="url(#light)" stroke="#222" stroke-width="1"/>
  <rect x="340" y="390" width="35" height="35" fill="#1a3a5c" stroke="#222" stroke-width="1"/>
  <rect x="395" y="390" width="35" height="35" fill="url(#light)" stroke="#222" stroke-width="1"/>
  
  <rect x="175" y="450" width="35" height="35" fill="url(#light)" stroke="#222" stroke-width="1"/>
  <rect x="230" y="450" width="35" height="35" fill="#1a3a5c" stroke="#222" stroke-width="1"/>
  <rect x="285" y="450" width="35" height="35" fill="#1a3a5c" stroke="#222" stroke-width="1"/>
  <rect x="340" y="450" width="35" height="35" fill="url(#light)" stroke="#222" stroke-width="1"/>
  <rect x="395" y="450" width="35" height="35" fill="url(#light)" stroke="#222" stroke-width="1"/>
  
  <rect x="175" y="510" width="35" height="35" fill="#1a3a5c" stroke="#222" stroke-width="1"/>
  <rect x="230" y="510" width="35" height="35" fill="url(#light)" stroke="#222" stroke-width="1"/>
  <rect x="285" y="510" width="35" height="35" fill="url(#light)" stroke="#222" stroke-width="1"/>
  <rect x="340" y="510" width="35" height="35" fill="#1a3a5c" stroke="#222" stroke-width="1"/>
  <rect x="395" y="510" width="35" height="35" fill="url(#light)" stroke="#222" stroke-width="1"/>
  
  <rect x="175" y="570" width="35" height="35" fill="url(#light)" stroke="#222" stroke-width="1"/>
  <rect x="230" y="570" width="35" height="35" fill="#1a3a5c" stroke="#222" stroke-width="1"/>
  <rect x="285" y="570" width="35" height="35" fill="url(#light)" stroke="#222" stroke-width="1"/>
  <rect x="340" y="570" width="35" height="35" fill="url(#light)" stroke="#222" stroke-width="1"/>
  <rect x="395" y="570" width="35" height="35" fill="#1a3a5c" stroke="#222" stroke-width="1"/>
  
  <!-- Door -->
  <rect x="295" y="600" width="30" height="50" fill="#8b4513" stroke="#654321" stroke-width="2"/>
  <circle cx="320" cy="625" r="2" fill="#ffd700"/>
  
  <!-- Tall Building (Right) -->
  <rect x="580" y="150" width="280" height="550" fill="url(#buildingGradient)" stroke="#1a1a1a" stroke-width="2"/>
  
  <!-- Tall Building Roof -->
  <polygon points="580,150 720,80 860,150" fill="#1a1a1a" stroke="#0d0d0d" stroke-width="2"/>
  
  <!-- Windows Tall Building - Column 1 -->
  <rect x="600" y="180" width="30" height="30" fill="url(#light)" stroke="#222" stroke-width="1"/>
  <rect x="600" y="230" width="30" height="30" fill="#1a3a5c" stroke="#222" stroke-width="1"/>
  <rect x="600" y="280" width="30" height="30" fill="url(#light)" stroke="#222" stroke-width="1"/>
  <rect x="600" y="330" width="30" height="30" fill="url(#light)" stroke="#222" stroke-width="1"/>
  <rect x="600" y="380" width="30" height="30" fill="#1a3a5c" stroke="#222" stroke-width="1"/>
  <rect x="600" y="430" width="30" height="30" fill="url(#light)" stroke="#222" stroke-width="1"/>
  <rect x="600" y="480" width="30" height="30" fill="#1a3a5c" stroke="#222" stroke-width="1"/>
  <rect x="600" y="530" width="30" height="30" fill="url(#light)" stroke="#222" stroke-width="1"/>
  <rect x="600" y="580" width="30" height="30" fill="url(#light)" stroke="#222" stroke-width="1"/>
  
  <!-- Column 2 -->
  <rect x="660" y="180" width="30" height="30" fill="#1a3a5c" stroke="#222" stroke-width="1"/>
  <rect x="660" y="230" width="30" height="30" fill="url(#light)" stroke="#222" stroke-width="1"/>
  <rect x="660" y="280" width="30" height="30" fill="#1a3a5c" stroke="#222" stroke-width="1"/>
  <rect x="660" y="330" width="30" height="30" fill="url(#light)" stroke="#222" stroke-width="1"/>
  <rect x="660" y="380" width="30" height="30" fill="url(#light)" stroke="#222" stroke-width="1"/>
  <rect x="660" y="430" width="30" height="30" fill="#1a3a5c" stroke="#222" stroke-width="1"/>
  <rect x="660" y="480" width="30" height="30" fill="url(#light)" stroke="#222" stroke-width="1"/>
  <rect x="660" y="530" width="30" height="30" fill="url(#light)" stroke="#222" stroke-width="1"/>
  <rect x="660" y="580" width="30" height="30" fill="#1a3a5c" stroke="#222" stroke-width="1"/>
  
  <!-- Column 3 -->
  <rect x="720" y="180" width="30" height="30" fill="url(#light)" stroke="#222" stroke-width="1"/>
  <rect x="720" y="230" width="30" height="30" fill="#1a3a5c" stroke="#222" stroke-width="1"/>
  <rect x="720" y="280" width="30" height="30" fill="url(#light)" stroke="#222" stroke-width="1"/>
  <rect x="720" y="330" width="30" height="30" fill="#1a3a5c" stroke="#222" stroke-width="1"/>
  <rect x="720" y="380" width="30" height="30" fill="url(#light)" stroke="#222" stroke-width="1"/>
  <rect x="720" y="430" width="30" height="30" fill="url(#light)" stroke="#222" stroke-width="1"/>
  <rect x="720" y="480" width="30" height="30" fill="#1a3a5c" stroke="#222" stroke-width="1"/>
  <rect x="720" y="530" width="30" height="30" fill="url(#light)" stroke="#222" stroke-width="1"/>
  <rect x="720" y="580" width="30" height="30" fill="url(#light)" stroke="#222" stroke-width="1"/>
  
  <!-- Column 4 -->
  <rect x="780" y="180" width="30" height="30" fill="#1a3a5c" stroke="#222" stroke-width="1"/>
  <rect x="780" y="230" width="30" height="30" fill="url(#light)" stroke="#222" stroke-width="1"/>
  <rect x="780" y="280" width="30" height="30" fill="url(#light)" stroke="#222" stroke-width="1"/>
  <rect x="780" y="330" width="30" height="30" fill="url(#light)" stroke="#222" stroke-width="1"/>
  <rect x="780" y="380" width="30" height="30" fill="#1a3a5c" stroke="#222" stroke-width="1"/>
  <rect x="780" y="430" width="30" height="30" fill="url(#light)" stroke="#222" stroke-width="1"/>
  <rect x="780" y="480" width="30" height="30" fill="url(#light)" stroke="#222" stroke-width="1"/>
  <rect x="780" y="530" width="30" height="30" fill="#1a3a5c" stroke="#222" stroke-width="1"/>
  <rect x="780" y="580" width="30" height="30" fill="url(#light)" stroke="#222" stroke-width="1"/>
  
  <!-- Small Building (Left) -->
  <rect x="50" y="450" width="200" height="250" fill="url(#buildingGradient)" stroke="#1a1a1a" stroke-width="2"/>
  
  <!-- Windows Small Building -->
  <rect x="70" y="480" width="25" height="25" fill="url(#light)" stroke="#222" stroke-width="1"/>
  <rect x="115" y="480" width="25" height="25" fill="#1a3a5c" stroke="#222" stroke-width="1"/>
  <rect x="160" y="480" width="25" height="25" fill="url(#light)" stroke="#222" stroke-width="1"/>
  <rect x="205" y="480" width="25" height="25" fill="url(#light)" stroke="#222" stroke-width="1"/>
  
  <rect x="70" y="540" width="25" height="25" fill="#1a3a5c" stroke="#222" stroke-width="1"/>
  <rect x="115" y="540" width="25" height="25" fill="url(#light)" stroke="#222" stroke-width="1"/>
  <rect x="160" y="540" width="25" height="25" fill="url(#light)" stroke="#222" stroke-width="1"/>
  <rect x="205" y="540" width="25" height="25" fill="#1a3a5c" stroke="#222" stroke-width="1"/>
  
  <rect x="70" y="600" width="25" height="25" fill="url(#light)" stroke="#222" stroke-width="1"/>
  <rect x="115" y="600" width="25" height="25" fill="#1a3a5c" stroke="#222" stroke-width="1"/>
  <rect x="160" y="600" width="25" height="25" fill="url(#light)" stroke="#222" stroke-width="1"/>
  <rect x="205" y="600" width="25" height="25" fill="url(#light)" stroke="#222" stroke-width="1"/>
  
  <!-- Building on Right Side -->
  <rect x="940" y="380" width="220" height="320" fill="url(#buildingGradient)" stroke="#1a1a1a" stroke-width="2"/>
  
  <!-- Windows Right Building -->
  <rect x="960" y="410" width="28" height="28" fill="url(#light)" stroke="#222" stroke-width="1"/>
  <rect x="1008" y="410" width="28" height="28" fill="#1a3a5c" stroke="#222" stroke-width="1"/>
  <rect x="1056" y="410" width="28" height="28" fill="url(#light)" stroke="#222" stroke-width="1"/>
  <rect x="1104" y="410" width="28" height="28" fill="url(#light)" stroke="#222" stroke-width="1"/>
  
  <rect x="960" y="470" width="28" height="28" fill="#1a3a5c" stroke="#222" stroke-width="1"/>
  <rect x="1008" y="470" width="28" height="28" fill="url(#light)" stroke="#222" stroke-width="1"/>
  <rect x="1056" y="470" width="28" height="28" fill="url(#light)" stroke="#222" stroke-width="1"/>
  <rect x="1104" y="470" width="28" height="28" fill="#1a3a5c" stroke="#222" stroke-width="1"/>
  
  <rect x="960" y="530" width="28" height="28" fill="url(#light)" stroke="#222" stroke-width="1"/>
  <rect x="1008" y="530" width="28" height="28" fill="#1a3a5c" stroke="#222" stroke-width="1"/>
  <rect x="1056" y="530" width="28" height="28" fill="url(#light)" stroke="#222" stroke-width="1"/>
  <rect x="1104" y="530" width="28" height="28" fill="url(#light)" stroke="#222" stroke-width="1"/>
  
  <rect x="960" y="590" width="28" height="28" fill="#1a3a5c" stroke="#222" stroke-width="1"/>
  <rect x="1008" y="590" width="28" height="28" fill="url(#light)" stroke="#222" stroke-width="1"/>
  <rect x="1056" y="590" width="28" height="28" fill="url(#light)" stroke="#222" stroke-width="1"/>
  <rect x="1104" y="590" width="28" height="28" fill="url(#light)" stroke="#222" stroke-width="1"/>
  
  <!-- Clouds -->
  <g opacity="0.6">
    <ellipse cx="300" cy="120" rx="80" ry="50" fill="white"/>
    <ellipse cx="360" cy="140" rx="70" ry="45" fill="white"/>
    <ellipse cx="240" cy="140" rx="60" ry="40" fill="white"/>
    
    <ellipse cx="900" cy="200" rx="100" ry="60" fill="white"/>
    <ellipse cx="980" cy="220" rx="85" ry="50" fill="white"/>
    <ellipse cx="820" cy="220" rx="75" ry="45" fill="white"/>
  </g>
  
  <!-- City lights reflection on ground -->
  <rect x="0" y="650" width="1200" height="150" fill="#000" opacity="0.2"/>
</svg>